<svg id="Icon" xmlns="http://www.w3.org/2000/svg" width="41" height="37" viewBox="0 0 41 37">
  <metadata><?xpacket begin="﻿" id="W5M0MpCehiHzreSzNTczkc9d"?>
<x:xmpmeta xmlns:x="adobe:ns:meta/" x:xmptk="Adobe XMP Core 5.6-c140 79.160451, 2017/05/06-01:08:21        ">
   <rdf:RDF xmlns:rdf="http://www.w3.org/1999/02/22-rdf-syntax-ns#">
      <rdf:Description rdf:about=""/>
   </rdf:RDF>
</x:xmpmeta>
                                                                                                    
                                                                                                    
                                                                                                    
                                                                                                    
                                                                                                    
                                                                                                    
                                                                                                    
                                                                                                    
                                                                                                    
                                                                                                    
                                                                                                    
                                                                                                    
                                                                                                    
                                                                                                    
                                                                                                    
                                                                                                    
                                                                                                    
                                                                                                    
                                                                                                    
                                                                                                    
                           
<?xpacket end="w"?></metadata>
<defs>
    <style>
      .cls-1 {
        fill: #222;
        fill-rule: evenodd;
      }
    </style>
  </defs>
  <path id="Forma_1" data-name="Forma 1" class="cls-1" d="M1.184,10.364H4.577L9.41,27.819a1.184,1.184,0,0,0,1.144.867H25.409a1.186,1.186,0,0,0,1.085-.709L31.9,15.565a1.194,1.194,0,0,0-.1-1.123,1.176,1.176,0,0,0-.986-0.532H14.4a1.182,1.182,0,1,0,0,2.364H29L24.62,26.322H11.442L6.609,8.867A1.183,1.183,0,0,0,5.464,8H1.184A1.182,1.182,0,1,0,1.184,10.364ZM9.43,37a2.679,2.679,0,1,0-2.683-2.679A2.684,2.684,0,0,0,9.43,37ZM26.2,37h0.2A2.775,2.775,0,1,0,26.2,37Z"/>
</svg>
